<mxfile host="app.diagrams.net" agent="Mozilla/5.0 (Windows NT 10.0; Win64; x64) AppleWebKit/537.36 (KHTML, like Gecko) Chrome/132.0.0.0 Safari/537.36" version="26.0.10">
  <diagram name="Página-1" id="raROPL-AR90-nA5Fcj93">
    <mxGraphModel dx="2390" dy="1230" grid="1" gridSize="10" guides="1" tooltips="1" connect="1" arrows="1" fold="1" page="1" pageScale="1" pageWidth="827" pageHeight="1169" math="0" shadow="0">
      <root>
        <mxCell id="0" />
        <mxCell id="1" parent="0" />
        <mxCell id="iQFdlbuYNqTvTdsV16da-6" value="Local" style="swimlane;fontStyle=1;align=center;verticalAlign=top;childLayout=stackLayout;horizontal=1;startSize=26;horizontalStack=0;resizeParent=1;resizeParentMax=0;resizeLast=0;collapsible=1;marginBottom=0;whiteSpace=wrap;html=1;" parent="1" vertex="1">
          <mxGeometry x="657" y="300" width="170" height="130" as="geometry" />
        </mxCell>
        <mxCell id="iQFdlbuYNqTvTdsV16da-7" value="- id: int&lt;div&gt;- cidade: string&lt;/div&gt;&lt;div&gt;- irradiação: float&lt;/div&gt;" style="text;strokeColor=none;fillColor=none;align=left;verticalAlign=top;spacingLeft=4;spacingRight=4;overflow=hidden;rotatable=0;points=[[0,0.5],[1,0.5]];portConstraint=eastwest;whiteSpace=wrap;html=1;" parent="iQFdlbuYNqTvTdsV16da-6" vertex="1">
          <mxGeometry y="26" width="170" height="54" as="geometry" />
        </mxCell>
        <mxCell id="iQFdlbuYNqTvTdsV16da-8" value="" style="line;strokeWidth=1;fillColor=none;align=left;verticalAlign=middle;spacingTop=-1;spacingLeft=3;spacingRight=3;rotatable=0;labelPosition=right;points=[];portConstraint=eastwest;strokeColor=inherit;" parent="iQFdlbuYNqTvTdsV16da-6" vertex="1">
          <mxGeometry y="80" width="170" height="8" as="geometry" />
        </mxCell>
        <mxCell id="iQFdlbuYNqTvTdsV16da-9" value="+ Local(id: int, cidade: string, irradiação: float)" style="text;strokeColor=none;fillColor=none;align=left;verticalAlign=top;spacingLeft=4;spacingRight=4;overflow=hidden;rotatable=0;points=[[0,0.5],[1,0.5]];portConstraint=eastwest;whiteSpace=wrap;html=1;" parent="iQFdlbuYNqTvTdsV16da-6" vertex="1">
          <mxGeometry y="88" width="170" height="42" as="geometry" />
        </mxCell>
        <mxCell id="iQFdlbuYNqTvTdsV16da-11" value="&amp;lt;&amp;lt;static&amp;gt;&amp;gt;&lt;div&gt;Modelo JSON&lt;/div&gt;" style="swimlane;fontStyle=1;align=center;verticalAlign=top;childLayout=stackLayout;horizontal=1;startSize=40;horizontalStack=0;resizeParent=1;resizeParentMax=0;resizeLast=0;collapsible=1;marginBottom=0;whiteSpace=wrap;html=1;" parent="1" vertex="1">
          <mxGeometry x="320" y="800" width="170" height="180" as="geometry" />
        </mxCell>
        <mxCell id="iQFdlbuYNqTvTdsV16da-12" value="&amp;nbsp;-obj: list" style="text;strokeColor=none;fillColor=none;align=left;verticalAlign=top;spacingLeft=4;spacingRight=4;overflow=hidden;rotatable=0;points=[[0,0.5],[1,0.5]];portConstraint=eastwest;whiteSpace=wrap;html=1;" parent="iQFdlbuYNqTvTdsV16da-11" vertex="1">
          <mxGeometry y="40" width="170" height="20" as="geometry" />
        </mxCell>
        <mxCell id="iQFdlbuYNqTvTdsV16da-13" value="" style="line;strokeWidth=1;fillColor=none;align=left;verticalAlign=middle;spacingTop=-1;spacingLeft=3;spacingRight=3;rotatable=0;labelPosition=right;points=[];portConstraint=eastwest;strokeColor=inherit;" parent="iQFdlbuYNqTvTdsV16da-11" vertex="1">
          <mxGeometry y="60" width="170" height="10" as="geometry" />
        </mxCell>
        <mxCell id="iQFdlbuYNqTvTdsV16da-14" value="+ inserir()&lt;div&gt;+ listar()&lt;/div&gt;&lt;div&gt;+ buscar_id()&lt;/div&gt;&lt;div&gt;+ atualizar()&lt;/div&gt;&lt;div&gt;+ excluir()&lt;/div&gt;&lt;div&gt;+ abrir()&lt;/div&gt;&lt;div&gt;+ salvar()&lt;/div&gt;&lt;div&gt;&lt;br&gt;&lt;/div&gt;" style="text;strokeColor=none;fillColor=none;align=left;verticalAlign=top;spacingLeft=4;spacingRight=4;overflow=hidden;rotatable=0;points=[[0,0.5],[1,0.5]];portConstraint=eastwest;whiteSpace=wrap;html=1;" parent="iQFdlbuYNqTvTdsV16da-11" vertex="1">
          <mxGeometry y="70" width="170" height="110" as="geometry" />
        </mxCell>
        <mxCell id="iQFdlbuYNqTvTdsV16da-23" style="rounded=0;orthogonalLoop=1;jettySize=auto;html=1;exitX=0;exitY=0;exitDx=0;exitDy=0;entryX=0.995;entryY=1;entryDx=0;entryDy=0;entryPerimeter=0;" parent="1" source="iQFdlbuYNqTvTdsV16da-19" target="iQFdlbuYNqTvTdsV16da-14" edge="1">
          <mxGeometry relative="1" as="geometry">
            <mxPoint x="480" y="1010" as="targetPoint" />
          </mxGeometry>
        </mxCell>
        <mxCell id="iQFdlbuYNqTvTdsV16da-19" value="&amp;lt;&amp;lt;static&amp;gt;&amp;gt;&lt;div&gt;Locais&lt;/div&gt;" style="swimlane;fontStyle=1;align=center;verticalAlign=top;childLayout=stackLayout;horizontal=1;startSize=40;horizontalStack=0;resizeParent=1;resizeParentMax=0;resizeLast=0;collapsible=1;marginBottom=0;whiteSpace=wrap;html=1;" parent="1" vertex="1">
          <mxGeometry x="560" y="1020" width="170" height="100" as="geometry" />
        </mxCell>
        <mxCell id="iQFdlbuYNqTvTdsV16da-22" value="&lt;div&gt;+ abrir()&lt;/div&gt;&lt;div&gt;&lt;br&gt;&lt;/div&gt;&lt;div&gt;+ salvar()&lt;/div&gt;&lt;div&gt;&lt;br&gt;&lt;/div&gt;" style="text;strokeColor=none;fillColor=none;align=left;verticalAlign=top;spacingLeft=4;spacingRight=4;overflow=hidden;rotatable=0;points=[[0,0.5],[1,0.5]];portConstraint=eastwest;whiteSpace=wrap;html=1;" parent="iQFdlbuYNqTvTdsV16da-19" vertex="1">
          <mxGeometry y="40" width="170" height="60" as="geometry" />
        </mxCell>
        <mxCell id="iQFdlbuYNqTvTdsV16da-24" value="Produto" style="swimlane;fontStyle=1;align=center;verticalAlign=top;childLayout=stackLayout;horizontal=1;startSize=26;horizontalStack=0;resizeParent=1;resizeParentMax=0;resizeLast=0;collapsible=1;marginBottom=0;whiteSpace=wrap;html=1;" parent="1" vertex="1">
          <mxGeometry x="44" y="40" width="170" height="190" as="geometry" />
        </mxCell>
        <mxCell id="iQFdlbuYNqTvTdsV16da-25" value="- id: int&lt;div&gt;- tipo: string&lt;/div&gt;&lt;div&gt;- valor: float&lt;/div&gt;&lt;div&gt;- estoque: int&lt;/div&gt;&lt;div&gt;- marca: string&lt;/div&gt;&lt;div&gt;- potencia: int&lt;/div&gt;" style="text;strokeColor=none;fillColor=none;align=left;verticalAlign=top;spacingLeft=4;spacingRight=4;overflow=hidden;rotatable=0;points=[[0,0.5],[1,0.5]];portConstraint=eastwest;whiteSpace=wrap;html=1;" parent="iQFdlbuYNqTvTdsV16da-24" vertex="1">
          <mxGeometry y="26" width="170" height="94" as="geometry" />
        </mxCell>
        <mxCell id="iQFdlbuYNqTvTdsV16da-26" value="" style="line;strokeWidth=1;fillColor=none;align=left;verticalAlign=middle;spacingTop=-1;spacingLeft=3;spacingRight=3;rotatable=0;labelPosition=right;points=[];portConstraint=eastwest;strokeColor=inherit;" parent="iQFdlbuYNqTvTdsV16da-24" vertex="1">
          <mxGeometry y="120" width="170" height="8" as="geometry" />
        </mxCell>
        <mxCell id="iQFdlbuYNqTvTdsV16da-27" value="+ Produto(id: int, tipo: string, valor: float, estoque: int, marca: string, potencia: int)" style="text;strokeColor=none;fillColor=none;align=left;verticalAlign=top;spacingLeft=4;spacingRight=4;overflow=hidden;rotatable=0;points=[[0,0.5],[1,0.5]];portConstraint=eastwest;whiteSpace=wrap;html=1;" parent="iQFdlbuYNqTvTdsV16da-24" vertex="1">
          <mxGeometry y="128" width="170" height="62" as="geometry" />
        </mxCell>
        <mxCell id="iQFdlbuYNqTvTdsV16da-28" value="&amp;lt;&amp;lt;static&amp;gt;&amp;gt;&lt;div&gt;Produtos&lt;/div&gt;" style="swimlane;fontStyle=1;align=center;verticalAlign=top;childLayout=stackLayout;horizontal=1;startSize=40;horizontalStack=0;resizeParent=1;resizeParentMax=0;resizeLast=0;collapsible=1;marginBottom=0;whiteSpace=wrap;html=1;" parent="1" vertex="1">
          <mxGeometry x="570" y="680" width="170" height="100" as="geometry" />
        </mxCell>
        <mxCell id="iQFdlbuYNqTvTdsV16da-29" value="&lt;div&gt;+ abrir()&lt;/div&gt;&lt;div&gt;&lt;br&gt;&lt;/div&gt;&lt;div&gt;+ salvar()&lt;/div&gt;&lt;div&gt;&lt;br&gt;&lt;/div&gt;" style="text;strokeColor=none;fillColor=none;align=left;verticalAlign=top;spacingLeft=4;spacingRight=4;overflow=hidden;rotatable=0;points=[[0,0.5],[1,0.5]];portConstraint=eastwest;whiteSpace=wrap;html=1;" parent="iQFdlbuYNqTvTdsV16da-28" vertex="1">
          <mxGeometry y="40" width="170" height="60" as="geometry" />
        </mxCell>
        <mxCell id="iQFdlbuYNqTvTdsV16da-30" style="rounded=0;orthogonalLoop=1;jettySize=auto;html=1;exitX=0.003;exitY=0.994;exitDx=0;exitDy=0;entryX=1;entryY=0;entryDx=0;entryDy=0;exitPerimeter=0;" parent="1" source="iQFdlbuYNqTvTdsV16da-29" target="iQFdlbuYNqTvTdsV16da-11" edge="1">
          <mxGeometry relative="1" as="geometry">
            <mxPoint x="499.9999999999998" y="800" as="targetPoint" />
          </mxGeometry>
        </mxCell>
        <mxCell id="iQFdlbuYNqTvTdsV16da-31" value="Item" style="swimlane;fontStyle=1;align=center;verticalAlign=top;childLayout=stackLayout;horizontal=1;startSize=26;horizontalStack=0;resizeParent=1;resizeParentMax=0;resizeLast=0;collapsible=1;marginBottom=0;whiteSpace=wrap;html=1;" parent="1" vertex="1">
          <mxGeometry x="324" y="40" width="170" height="160" as="geometry" />
        </mxCell>
        <mxCell id="iQFdlbuYNqTvTdsV16da-32" value="- id: int&lt;div&gt;- id_Produto&lt;span style=&quot;background-color: transparent; color: light-dark(rgb(0, 0, 0), rgb(255, 255, 255));&quot;&gt;: int&lt;/span&gt;&lt;/div&gt;&lt;div&gt;&lt;span style=&quot;background-color: transparent; color: light-dark(rgb(0, 0, 0), rgb(255, 255, 255));&quot;&gt;- id_Kit: int&lt;/span&gt;&lt;/div&gt;&lt;div&gt;- quantidade_Produto: int&lt;/div&gt;&lt;div&gt;&lt;br&gt;&lt;/div&gt;" style="text;strokeColor=none;fillColor=none;align=left;verticalAlign=top;spacingLeft=4;spacingRight=4;overflow=hidden;rotatable=0;points=[[0,0.5],[1,0.5]];portConstraint=eastwest;whiteSpace=wrap;html=1;" parent="iQFdlbuYNqTvTdsV16da-31" vertex="1">
          <mxGeometry y="26" width="170" height="64" as="geometry" />
        </mxCell>
        <mxCell id="iQFdlbuYNqTvTdsV16da-33" value="" style="line;strokeWidth=1;fillColor=none;align=left;verticalAlign=middle;spacingTop=-1;spacingLeft=3;spacingRight=3;rotatable=0;labelPosition=right;points=[];portConstraint=eastwest;strokeColor=inherit;" parent="iQFdlbuYNqTvTdsV16da-31" vertex="1">
          <mxGeometry y="90" width="170" height="8" as="geometry" />
        </mxCell>
        <mxCell id="iQFdlbuYNqTvTdsV16da-34" value="+ Item(id: int, id_Produto: int, id_kit: int, quantidade_Produto: int)" style="text;strokeColor=none;fillColor=none;align=left;verticalAlign=top;spacingLeft=4;spacingRight=4;overflow=hidden;rotatable=0;points=[[0,0.5],[1,0.5]];portConstraint=eastwest;whiteSpace=wrap;html=1;" parent="iQFdlbuYNqTvTdsV16da-31" vertex="1">
          <mxGeometry y="98" width="170" height="62" as="geometry" />
        </mxCell>
        <mxCell id="iQFdlbuYNqTvTdsV16da-37" style="edgeStyle=orthogonalEdgeStyle;rounded=0;orthogonalLoop=1;jettySize=auto;html=1;exitX=0.5;exitY=1;exitDx=0;exitDy=0;" parent="1" source="iQFdlbuYNqTvTdsV16da-35" target="iQFdlbuYNqTvTdsV16da-11" edge="1">
          <mxGeometry relative="1" as="geometry" />
        </mxCell>
        <mxCell id="iQFdlbuYNqTvTdsV16da-35" value="&amp;lt;&amp;lt;static&amp;gt;&amp;gt;&lt;div&gt;Itens&lt;/div&gt;" style="swimlane;fontStyle=1;align=center;verticalAlign=top;childLayout=stackLayout;horizontal=1;startSize=40;horizontalStack=0;resizeParent=1;resizeParentMax=0;resizeLast=0;collapsible=1;marginBottom=0;whiteSpace=wrap;html=1;" parent="1" vertex="1">
          <mxGeometry x="320" y="600" width="170" height="100" as="geometry" />
        </mxCell>
        <mxCell id="iQFdlbuYNqTvTdsV16da-36" value="&lt;div&gt;+ abrir()&lt;/div&gt;&lt;div&gt;&lt;br&gt;&lt;/div&gt;&lt;div&gt;+ salvar()&lt;/div&gt;&lt;div&gt;&lt;br&gt;&lt;/div&gt;" style="text;strokeColor=none;fillColor=none;align=left;verticalAlign=top;spacingLeft=4;spacingRight=4;overflow=hidden;rotatable=0;points=[[0,0.5],[1,0.5]];portConstraint=eastwest;whiteSpace=wrap;html=1;" parent="iQFdlbuYNqTvTdsV16da-35" vertex="1">
          <mxGeometry y="40" width="170" height="60" as="geometry" />
        </mxCell>
        <mxCell id="iQFdlbuYNqTvTdsV16da-38" value="Kit_Solar" style="swimlane;fontStyle=1;align=center;verticalAlign=top;childLayout=stackLayout;horizontal=1;startSize=26;horizontalStack=0;resizeParent=1;resizeParentMax=0;resizeLast=0;collapsible=1;marginBottom=0;whiteSpace=wrap;html=1;" parent="1" vertex="1">
          <mxGeometry x="606" y="40" width="170" height="170" as="geometry" />
        </mxCell>
        <mxCell id="iQFdlbuYNqTvTdsV16da-39" value="- id: int&lt;div&gt;- id_Item: list&lt;/div&gt;&lt;div&gt;- quantidade: int&lt;/div&gt;&lt;div&gt;- valor_kit: float&lt;/div&gt;&lt;div&gt;&lt;br&gt;&lt;/div&gt;" style="text;strokeColor=none;fillColor=none;align=left;verticalAlign=top;spacingLeft=4;spacingRight=4;overflow=hidden;rotatable=0;points=[[0,0.5],[1,0.5]];portConstraint=eastwest;whiteSpace=wrap;html=1;" parent="iQFdlbuYNqTvTdsV16da-38" vertex="1">
          <mxGeometry y="26" width="170" height="74" as="geometry" />
        </mxCell>
        <mxCell id="iQFdlbuYNqTvTdsV16da-40" value="" style="line;strokeWidth=1;fillColor=none;align=left;verticalAlign=middle;spacingTop=-1;spacingLeft=3;spacingRight=3;rotatable=0;labelPosition=right;points=[];portConstraint=eastwest;strokeColor=inherit;" parent="iQFdlbuYNqTvTdsV16da-38" vertex="1">
          <mxGeometry y="100" width="170" height="8" as="geometry" />
        </mxCell>
        <mxCell id="iQFdlbuYNqTvTdsV16da-41" value="+ Kit_Solar(id: int, id_Produto: int, quantidade: int, valor_Kit: float)" style="text;strokeColor=none;fillColor=none;align=left;verticalAlign=top;spacingLeft=4;spacingRight=4;overflow=hidden;rotatable=0;points=[[0,0.5],[1,0.5]];portConstraint=eastwest;whiteSpace=wrap;html=1;" parent="iQFdlbuYNqTvTdsV16da-38" vertex="1">
          <mxGeometry y="108" width="170" height="62" as="geometry" />
        </mxCell>
        <mxCell id="iQFdlbuYNqTvTdsV16da-42" value="&amp;lt;&amp;lt;static&amp;gt;&amp;gt;&lt;div&gt;Kit_Solares&lt;/div&gt;" style="swimlane;fontStyle=1;align=center;verticalAlign=top;childLayout=stackLayout;horizontal=1;startSize=40;horizontalStack=0;resizeParent=1;resizeParentMax=0;resizeLast=0;collapsible=1;marginBottom=0;whiteSpace=wrap;html=1;" parent="1" vertex="1">
          <mxGeometry x="80" y="680" width="170" height="100" as="geometry" />
        </mxCell>
        <mxCell id="iQFdlbuYNqTvTdsV16da-43" value="&lt;div&gt;+ abrir()&lt;/div&gt;&lt;div&gt;&lt;br&gt;&lt;/div&gt;&lt;div&gt;+ salvar()&lt;/div&gt;&lt;div&gt;&lt;br&gt;&lt;/div&gt;" style="text;strokeColor=none;fillColor=none;align=left;verticalAlign=top;spacingLeft=4;spacingRight=4;overflow=hidden;rotatable=0;points=[[0,0.5],[1,0.5]];portConstraint=eastwest;whiteSpace=wrap;html=1;" parent="iQFdlbuYNqTvTdsV16da-42" vertex="1">
          <mxGeometry y="40" width="170" height="60" as="geometry" />
        </mxCell>
        <mxCell id="iQFdlbuYNqTvTdsV16da-44" style="rounded=0;orthogonalLoop=1;jettySize=auto;html=1;exitX=1;exitY=1;exitDx=0;exitDy=0;entryX=0;entryY=0;entryDx=0;entryDy=0;" parent="1" source="iQFdlbuYNqTvTdsV16da-42" target="iQFdlbuYNqTvTdsV16da-11" edge="1">
          <mxGeometry relative="1" as="geometry" />
        </mxCell>
        <mxCell id="K4epWRoawKhQq49OXqEP-1" value="Cliente" style="swimlane;fontStyle=1;align=center;verticalAlign=top;childLayout=stackLayout;horizontal=1;startSize=26;horizontalStack=0;resizeParent=1;resizeParentMax=0;resizeLast=0;collapsible=1;marginBottom=0;whiteSpace=wrap;html=1;" parent="1" vertex="1">
          <mxGeometry y="290" width="170" height="190" as="geometry" />
        </mxCell>
        <mxCell id="K4epWRoawKhQq49OXqEP-2" value="- id: int&lt;div&gt;- nome: string&lt;/div&gt;&lt;div&gt;- endereço: string&lt;/div&gt;&lt;div&gt;- cidade: string&lt;/div&gt;&lt;div&gt;- telefone: string&lt;/div&gt;&lt;div&gt;&lt;br&gt;&lt;/div&gt;&lt;div&gt;&lt;br&gt;&lt;/div&gt;" style="text;strokeColor=none;fillColor=none;align=left;verticalAlign=top;spacingLeft=4;spacingRight=4;overflow=hidden;rotatable=0;points=[[0,0.5],[1,0.5]];portConstraint=eastwest;whiteSpace=wrap;html=1;" parent="K4epWRoawKhQq49OXqEP-1" vertex="1">
          <mxGeometry y="26" width="170" height="94" as="geometry" />
        </mxCell>
        <mxCell id="K4epWRoawKhQq49OXqEP-3" value="" style="line;strokeWidth=1;fillColor=none;align=left;verticalAlign=middle;spacingTop=-1;spacingLeft=3;spacingRight=3;rotatable=0;labelPosition=right;points=[];portConstraint=eastwest;strokeColor=inherit;" parent="K4epWRoawKhQq49OXqEP-1" vertex="1">
          <mxGeometry y="120" width="170" height="8" as="geometry" />
        </mxCell>
        <mxCell id="K4epWRoawKhQq49OXqEP-4" value="+ Cliente(id: int, nome: string, endereço: string, cidade: string, telefone: string)" style="text;strokeColor=none;fillColor=none;align=left;verticalAlign=top;spacingLeft=4;spacingRight=4;overflow=hidden;rotatable=0;points=[[0,0.5],[1,0.5]];portConstraint=eastwest;whiteSpace=wrap;html=1;" parent="K4epWRoawKhQq49OXqEP-1" vertex="1">
          <mxGeometry y="128" width="170" height="62" as="geometry" />
        </mxCell>
        <mxCell id="K4epWRoawKhQq49OXqEP-5" value="&amp;lt;&amp;lt;static&amp;gt;&amp;gt;&lt;div&gt;Clientes&lt;/div&gt;" style="swimlane;fontStyle=1;align=center;verticalAlign=top;childLayout=stackLayout;horizontal=1;startSize=40;horizontalStack=0;resizeParent=1;resizeParentMax=0;resizeLast=0;collapsible=1;marginBottom=0;whiteSpace=wrap;html=1;" parent="1" vertex="1">
          <mxGeometry x="90" y="1020" width="170" height="100" as="geometry" />
        </mxCell>
        <mxCell id="K4epWRoawKhQq49OXqEP-6" value="&lt;div&gt;+ abrir()&lt;/div&gt;&lt;div&gt;&lt;br&gt;&lt;/div&gt;&lt;div&gt;+ salvar()&lt;/div&gt;&lt;div&gt;&lt;br&gt;&lt;/div&gt;" style="text;strokeColor=none;fillColor=none;align=left;verticalAlign=top;spacingLeft=4;spacingRight=4;overflow=hidden;rotatable=0;points=[[0,0.5],[1,0.5]];portConstraint=eastwest;whiteSpace=wrap;html=1;" parent="K4epWRoawKhQq49OXqEP-5" vertex="1">
          <mxGeometry y="40" width="170" height="60" as="geometry" />
        </mxCell>
        <mxCell id="K4epWRoawKhQq49OXqEP-7" style="rounded=0;orthogonalLoop=1;jettySize=auto;html=1;exitX=1;exitY=0;exitDx=0;exitDy=0;entryX=0;entryY=1;entryDx=0;entryDy=0;entryPerimeter=0;" parent="1" source="K4epWRoawKhQq49OXqEP-5" target="iQFdlbuYNqTvTdsV16da-14" edge="1">
          <mxGeometry relative="1" as="geometry" />
        </mxCell>
        <mxCell id="K4epWRoawKhQq49OXqEP-8" value="Atendimento" style="swimlane;fontStyle=1;align=center;verticalAlign=top;childLayout=stackLayout;horizontal=1;startSize=26;horizontalStack=0;resizeParent=1;resizeParentMax=0;resizeLast=0;collapsible=1;marginBottom=0;whiteSpace=wrap;html=1;" parent="1" vertex="1">
          <mxGeometry x="220" y="290" width="390" height="250" as="geometry" />
        </mxCell>
        <mxCell id="K4epWRoawKhQq49OXqEP-9" value="&lt;div&gt;&lt;div&gt;- id: int&lt;div&gt;- id_Cliente: int&lt;/div&gt;&lt;div&gt;- potencia: float&lt;/div&gt;&lt;div&gt;- id_Kit_Solar: int&lt;/div&gt;&lt;div&gt;- id_Preço_total: int&lt;/div&gt;&lt;div&gt;- id_Local: int&lt;/div&gt;&lt;div&gt;- id_Status: int&lt;/div&gt;&lt;div&gt;&lt;br&gt;&lt;/div&gt;&lt;/div&gt;&lt;/div&gt;" style="text;strokeColor=none;fillColor=none;align=left;verticalAlign=top;spacingLeft=4;spacingRight=4;overflow=hidden;rotatable=0;points=[[0,0.5],[1,0.5]];portConstraint=eastwest;whiteSpace=wrap;html=1;" parent="K4epWRoawKhQq49OXqEP-8" vertex="1">
          <mxGeometry y="26" width="390" height="104" as="geometry" />
        </mxCell>
        <mxCell id="K4epWRoawKhQq49OXqEP-10" value="" style="line;strokeWidth=1;fillColor=none;align=left;verticalAlign=middle;spacingTop=-1;spacingLeft=3;spacingRight=3;rotatable=0;labelPosition=right;points=[];portConstraint=eastwest;strokeColor=inherit;" parent="K4epWRoawKhQq49OXqEP-8" vertex="1">
          <mxGeometry y="130" width="390" height="20" as="geometry" />
        </mxCell>
        <mxCell id="K4epWRoawKhQq49OXqEP-11" value="+ Atendimento(id: int, id_Cliente: int, potencia: int, id_Kit_Solar: int, id_Preço_Total: float, id_Local: int, id_Status: int)&lt;div&gt;+ Dimensionar(id: int, id_Cliente: int, potencia: int, id_Local: int)&lt;/div&gt;&lt;div&gt;+ Media_Consumo(id_Cliente: int)&lt;/div&gt;&lt;div&gt;+ Orçamento(&lt;span style=&quot;background-color: transparent; color: light-dark(rgb(0, 0, 0), rgb(255, 255, 255));&quot;&gt;id: int, id_Cliente: int, potencia: int, id_Local: int, consumo)&lt;/span&gt;&lt;/div&gt;" style="text;strokeColor=none;fillColor=none;align=left;verticalAlign=top;spacingLeft=4;spacingRight=4;overflow=hidden;rotatable=0;points=[[0,0.5],[1,0.5]];portConstraint=eastwest;whiteSpace=wrap;html=1;" parent="K4epWRoawKhQq49OXqEP-8" vertex="1">
          <mxGeometry y="150" width="390" height="100" as="geometry" />
        </mxCell>
        <mxCell id="HJZy821GtSDP_Wi-4LAA-1" value="" style="rounded=0;orthogonalLoop=1;jettySize=auto;html=1;endArrow=none;startFill=0;exitX=1.002;exitY=0.471;exitDx=0;exitDy=0;exitPerimeter=0;entryX=0.001;entryY=0.69;entryDx=0;entryDy=0;entryPerimeter=0;" edge="1" parent="1" source="iQFdlbuYNqTvTdsV16da-25" target="iQFdlbuYNqTvTdsV16da-32">
          <mxGeometry relative="1" as="geometry">
            <mxPoint x="323" y="110" as="targetPoint" />
          </mxGeometry>
        </mxCell>
        <mxCell id="HJZy821GtSDP_Wi-4LAA-2" style="rounded=0;orthogonalLoop=1;jettySize=auto;html=1;exitX=0.997;exitY=0.69;exitDx=0;exitDy=0;entryX=0;entryY=0.595;entryDx=0;entryDy=0;endArrow=none;startFill=0;exitPerimeter=0;entryPerimeter=0;" edge="1" parent="1" source="iQFdlbuYNqTvTdsV16da-32" target="iQFdlbuYNqTvTdsV16da-39">
          <mxGeometry relative="1" as="geometry" />
        </mxCell>
        <mxCell id="HJZy821GtSDP_Wi-4LAA-3" value="1" style="text;strokeColor=none;fillColor=none;html=1;fontSize=11;fontStyle=1;verticalAlign=middle;align=center;fontFamily=Helvetica;fontColor=default;labelBackgroundColor=default;" vertex="1" parent="1">
          <mxGeometry x="224" y="95" width="10" height="10" as="geometry" />
        </mxCell>
        <mxCell id="HJZy821GtSDP_Wi-4LAA-4" value="*" style="text;strokeColor=none;fillColor=none;html=1;fontSize=11;fontStyle=1;verticalAlign=middle;align=center;fontFamily=Helvetica;fontColor=default;labelBackgroundColor=default;" vertex="1" parent="1">
          <mxGeometry x="304" y="96" width="10" height="10" as="geometry" />
        </mxCell>
        <mxCell id="HJZy821GtSDP_Wi-4LAA-5" value="*" style="text;strokeColor=none;fillColor=none;html=1;fontSize=11;fontStyle=1;verticalAlign=middle;align=center;fontFamily=Helvetica;fontColor=default;labelBackgroundColor=default;" vertex="1" parent="1">
          <mxGeometry x="504" y="96" width="10" height="10" as="geometry" />
        </mxCell>
        <mxCell id="HJZy821GtSDP_Wi-4LAA-6" value="1" style="text;strokeColor=none;fillColor=none;html=1;fontSize=11;fontStyle=1;verticalAlign=middle;align=center;fontFamily=Helvetica;fontColor=default;labelBackgroundColor=default;" vertex="1" parent="1">
          <mxGeometry x="594" y="95" width="10" height="10" as="geometry" />
        </mxCell>
        <mxCell id="HJZy821GtSDP_Wi-4LAA-7" style="edgeStyle=none;shape=connector;rounded=0;orthogonalLoop=1;jettySize=auto;html=1;exitX=0.001;exitY=0.441;exitDx=0;exitDy=0;strokeColor=default;align=center;verticalAlign=middle;fontFamily=Helvetica;fontSize=11;fontColor=default;labelBackgroundColor=default;startFill=0;endArrow=none;exitPerimeter=0;entryX=1;entryY=0.325;entryDx=0;entryDy=0;entryPerimeter=0;" edge="1" parent="1" source="iQFdlbuYNqTvTdsV16da-7" target="K4epWRoawKhQq49OXqEP-9">
          <mxGeometry relative="1" as="geometry">
            <mxPoint x="655" y="340" as="targetPoint" />
          </mxGeometry>
        </mxCell>
        <mxCell id="HJZy821GtSDP_Wi-4LAA-10" style="edgeStyle=none;shape=connector;rounded=0;orthogonalLoop=1;jettySize=auto;html=1;exitX=1;exitY=0.5;exitDx=0;exitDy=0;entryX=0.004;entryY=0.451;entryDx=0;entryDy=0;strokeColor=default;align=center;verticalAlign=middle;fontFamily=Helvetica;fontSize=11;fontColor=default;labelBackgroundColor=default;startFill=0;endArrow=none;entryPerimeter=0;" edge="1" parent="1" source="K4epWRoawKhQq49OXqEP-2" target="K4epWRoawKhQq49OXqEP-9">
          <mxGeometry relative="1" as="geometry" />
        </mxCell>
        <mxCell id="HJZy821GtSDP_Wi-4LAA-11" value="1" style="text;strokeColor=none;fillColor=none;html=1;fontSize=11;fontStyle=1;verticalAlign=middle;align=center;fontFamily=Helvetica;fontColor=default;labelBackgroundColor=default;" vertex="1" parent="1">
          <mxGeometry x="170" y="350" width="10" height="10" as="geometry" />
        </mxCell>
        <mxCell id="HJZy821GtSDP_Wi-4LAA-12" value="*" style="text;strokeColor=none;fillColor=none;html=1;fontSize=11;fontStyle=1;verticalAlign=middle;align=center;fontFamily=Helvetica;fontColor=default;labelBackgroundColor=default;" vertex="1" parent="1">
          <mxGeometry x="210" y="350" width="10" height="10" as="geometry" />
        </mxCell>
        <mxCell id="HJZy821GtSDP_Wi-4LAA-15" value="*" style="text;strokeColor=none;fillColor=none;html=1;fontSize=11;fontStyle=1;verticalAlign=middle;align=center;fontFamily=Helvetica;fontColor=default;labelBackgroundColor=default;" vertex="1" parent="1">
          <mxGeometry x="610" y="331" width="10" height="10" as="geometry" />
        </mxCell>
        <mxCell id="HJZy821GtSDP_Wi-4LAA-16" value="1" style="text;strokeColor=none;fillColor=none;html=1;fontSize=11;fontStyle=1;verticalAlign=middle;align=center;fontFamily=Helvetica;fontColor=default;labelBackgroundColor=default;" vertex="1" parent="1">
          <mxGeometry x="645" y="331" width="10" height="10" as="geometry" />
        </mxCell>
        <mxCell id="HJZy821GtSDP_Wi-4LAA-17" value="&amp;lt;&amp;lt;static&amp;gt;&amp;gt;&lt;div&gt;Atendimentos&lt;/div&gt;" style="swimlane;fontStyle=1;align=center;verticalAlign=top;childLayout=stackLayout;horizontal=1;startSize=40;horizontalStack=0;resizeParent=1;resizeParentMax=0;resizeLast=0;collapsible=1;marginBottom=0;whiteSpace=wrap;html=1;" vertex="1" parent="1">
          <mxGeometry x="325" y="1060" width="170" height="100" as="geometry" />
        </mxCell>
        <mxCell id="HJZy821GtSDP_Wi-4LAA-18" value="&lt;div&gt;+ abrir()&lt;/div&gt;&lt;div&gt;&lt;br&gt;&lt;/div&gt;&lt;div&gt;+ salvar()&lt;/div&gt;&lt;div&gt;&lt;br&gt;&lt;/div&gt;" style="text;strokeColor=none;fillColor=none;align=left;verticalAlign=top;spacingLeft=4;spacingRight=4;overflow=hidden;rotatable=0;points=[[0,0.5],[1,0.5]];portConstraint=eastwest;whiteSpace=wrap;html=1;" vertex="1" parent="HJZy821GtSDP_Wi-4LAA-17">
          <mxGeometry y="40" width="170" height="60" as="geometry" />
        </mxCell>
        <mxCell id="HJZy821GtSDP_Wi-4LAA-19" style="rounded=0;orthogonalLoop=1;jettySize=auto;html=1;exitX=0.527;exitY=-0.001;exitDx=0;exitDy=0;entryX=0.552;entryY=0.976;entryDx=0;entryDy=0;entryPerimeter=0;exitPerimeter=0;" edge="1" parent="1" source="HJZy821GtSDP_Wi-4LAA-17" target="iQFdlbuYNqTvTdsV16da-14">
          <mxGeometry relative="1" as="geometry">
            <mxPoint x="499" y="990" as="targetPoint" />
            <mxPoint x="570" y="1030" as="sourcePoint" />
          </mxGeometry>
        </mxCell>
        <mxCell id="HJZy821GtSDP_Wi-4LAA-20" style="edgeStyle=none;shape=connector;rounded=0;orthogonalLoop=1;jettySize=auto;html=1;exitX=0.265;exitY=1.008;exitDx=0;exitDy=0;strokeColor=default;align=center;verticalAlign=middle;fontFamily=Helvetica;fontSize=11;fontColor=default;labelBackgroundColor=default;startFill=0;endArrow=none;exitPerimeter=0;entryX=0.872;entryY=0;entryDx=0;entryDy=0;entryPerimeter=0;" edge="1" parent="1" source="iQFdlbuYNqTvTdsV16da-41" target="K4epWRoawKhQq49OXqEP-8">
          <mxGeometry relative="1" as="geometry">
            <mxPoint x="607" y="270" as="sourcePoint" />
            <mxPoint x="560" y="270" as="targetPoint" />
          </mxGeometry>
        </mxCell>
        <mxCell id="HJZy821GtSDP_Wi-4LAA-21" value="1" style="text;strokeColor=none;fillColor=none;html=1;fontSize=11;fontStyle=1;verticalAlign=middle;align=center;fontFamily=Helvetica;fontColor=default;labelBackgroundColor=default;" vertex="1" parent="1">
          <mxGeometry x="610" y="220" width="10" height="10" as="geometry" />
        </mxCell>
        <mxCell id="HJZy821GtSDP_Wi-4LAA-22" value="*" style="text;strokeColor=none;fillColor=none;html=1;fontSize=11;fontStyle=1;verticalAlign=middle;align=center;fontFamily=Helvetica;fontColor=default;labelBackgroundColor=default;" vertex="1" parent="1">
          <mxGeometry x="540" y="270" width="10" height="10" as="geometry" />
        </mxCell>
      </root>
    </mxGraphModel>
  </diagram>
</mxfile>
